<?xml version="1.0" standalone="no"?>
<!DOCTYPE svg PUBLIC "-//W3C//DTD SVG 20010904//EN"
 "http://www.w3.org/TR/2001/REC-SVG-20010904/DTD/svg10.dtd">
<svg version="1.0" xmlns="http://www.w3.org/2000/svg"
 width="292.000000pt" height="198.000000pt" viewBox="0 0 292.000000 198.000000"
 preserveAspectRatio="xMidYMid meet">
<metadata>
Created by potrace 1.16, written by Peter Selinger 2001-2019
</metadata>
<g transform="translate(0.000000,198.000000) scale(0.100000,-0.100000)"
fill="#0c24da" stroke="none">
<path d="M1453 1701 c-71 -45 -68 -17 -68 -597 0 -513 0 -523 21 -551 48 -65
117 -75 199 -29 408 230 807 465 832 489 55 51 56 130 4 183 -26 26 -224 143
-723 427 -174 98 -214 110 -265 78z m687 -394 c167 -97 249 -151 259 -169 25
-43 6 -76 -69 -122 -96 -58 -441 -256 -446 -256 -2 0 -4 56 -4 125 l0 125
-110 0 -110 0 0 -25 c0 -14 -2 -25 -5 -25 -9 0 -165 93 -170 101 -5 7 150 99
166 99 5 0 9 -11 9 -25 l0 -25 184 0 185 0 3 -25 3 -24 77 45 c43 25 76 50 73
54 -5 8 -143 90 -151 90 -2 0 -4 -11 -4 -25 0 -24 -2 -25 -75 -25 l-75 0 0
125 c0 69 3 125 8 125 4 0 117 -64 252 -143z"/>
<path d="M741 243 c0 -5 17 -60 37 -123 36 -111 39 -115 67 -118 30 -3 31 -2
68 110 43 133 44 140 15 136 -18 -2 -26 -18 -46 -83 -13 -44 -27 -83 -31 -88
-4 -4 -19 33 -34 83 -25 82 -30 90 -52 90 -14 0 -25 -3 -24 -7z"/>
<path d="M990 125 c0 -118 1 -125 20 -125 19 0 20 7 20 125 0 118 -1 125 -20
125 -19 0 -20 -7 -20 -125z"/>
<path d="M1070 125 l0 -125 73 0 c64 0 76 3 95 23 44 46 37 178 -11 212 -14
10 -44 15 -89 15 l-68 0 0 -125z m132 68 c13 -11 18 -30 18 -65 0 -70 -12 -88
-60 -88 l-40 0 0 78 c0 43 3 82 7 85 12 13 56 7 75 -10z"/>
<path d="M1317 238 c-14 -11 -17 -31 -18 -115 -1 -55 2 -106 5 -112 4 -6 39
-11 82 -11 67 0 74 2 74 20 0 16 -8 19 -57 22 -54 3 -58 5 -58 28 0 23 5 25
50 30 36 4 50 9 50 20 0 11 -14 16 -50 20 -45 5 -50 7 -50 30 0 23 4 25 58 28
48 3 57 6 57 21 0 11 -7 22 -16 25 -28 11 -110 6 -127 -6z"/>
<path d="M1533 238 c-30 -15 -46 -68 -41 -139 6 -82 24 -99 104 -99 83 0 94
15 94 123 0 69 -3 81 -25 102 -18 19 -34 25 -67 24 -24 0 -53 -5 -65 -11z
m101 -50 c18 -25 21 -100 6 -129 -12 -22 -68 -27 -88 -7 -18 18 -15 123 4 142
22 23 60 20 78 -6z"/>
<path d="M1870 230 c-24 -24 -26 -77 -5 -107 11 -16 28 -23 63 -25 43 -3 47
-5 50 -30 3 -28 3 -28 -57 -28 -55 0 -61 -2 -61 -20 0 -19 5 -21 78 -18 l77 3
10 38 c12 52 -8 91 -50 95 -63 6 -75 12 -75 37 0 28 30 40 81 33 21 -3 33 0
36 10 9 21 -16 32 -74 32 -40 0 -58 -5 -73 -20z"/>
<path d="M2060 125 l0 -125 25 0 c23 0 25 3 25 51 l0 50 43 -3 42 -3 3 -47 c2
-39 7 -48 21 -48 15 0 19 10 23 59 2 32 2 88 0 125 -4 56 -7 66 -23 66 -16 0
-19 -8 -19 -55 l0 -55 -45 0 -45 0 0 55 c0 52 -1 55 -25 55 l-25 0 0 -125z"/>
<path d="M2321 133 c-22 -65 -41 -121 -41 -125 0 -5 11 -8 25 -8 18 0 26 7 31
25 6 24 10 26 53 23 39 -3 46 -6 49 -25 3 -17 10 -23 28 -23 13 0 24 3 24 6 0
3 -17 59 -37 125 -35 113 -38 119 -63 119 -26 0 -30 -7 -69 -117z m83 15 c11
-41 7 -58 -13 -58 -27 0 -33 13 -20 49 13 37 24 40 33 9z"/>
<path d="M2520 125 l0 -125 25 0 c23 0 25 3 25 51 0 43 3 50 16 45 9 -3 19 -6
23 -6 5 0 16 -20 25 -45 14 -36 22 -45 42 -45 28 0 30 10 8 52 -15 29 -15 34
0 59 22 38 21 94 -4 119 -16 16 -33 20 -90 20 l-70 0 0 -125z m130 65 c17 -32
-4 -60 -45 -60 -34 0 -35 1 -35 40 0 39 1 40 35 40 24 0 37 -6 45 -20z"/>
<path d="M2757 238 c-15 -12 -17 -27 -15 -123 l3 -110 78 -3 c71 -3 77 -1 77
17 0 17 -8 20 -57 23 -54 3 -58 5 -58 28 0 23 5 25 50 30 36 4 51 10 53 22 3
14 -6 17 -50 20 -49 3 -53 5 -53 28 0 23 4 25 58 28 54 3 58 5 55 25 -3 19
-10 22 -63 25 -38 2 -67 -2 -78 -10z"/>
<path d="M1727 114 c-4 -4 -7 -13 -7 -21 0 -9 16 -13 56 -13 47 0 55 3 52 18
-2 13 -15 18 -48 20 -25 2 -49 0 -53 -4z"/>
</g>
</svg>
